# MagicaVoxel @ Ephtracy

# group
g steel_block

# material
mtllib steel_block.mtl
usemtl palette

# normals
vn -1 0 0
vn 1 0 0
vn 0 0 1
vn 0 0 -1
vn 0 -1 0
vn 0 1 0

# texcoords
vt 0.0917969 0.5
vt 0.919922 0.5
vt 0.939453 0.5
vt 0.943359 0.5

# verts
v -8 0 8
v -8 0 7
v -8 0 -8
v -8 14 8
v -8 14 7
v -8 14 -8
v -7 14 6
v -7 14 1
v -7 14 -2
v -7 14 -7
v -7 15 6
v -7 15 1
v -7 15 -2
v -7 15 -7
v -6 15 5
v -6 15 2
v -6 15 -3
v -6 15 -6
v -6 16 5
v -6 16 2
v -6 16 -3
v -6 16 -6
v 1 14 6
v 1 14 1
v 1 14 -2
v 1 14 -7
v 1 15 6
v 1 15 1
v 1 15 -2
v 1 15 -7
v 2 15 5
v 2 15 2
v 2 15 -3
v 2 15 -6
v 2 16 5
v 2 16 2
v 2 16 -3
v 2 16 -6
v -3 15 5
v -3 15 2
v -3 15 -3
v -3 15 -6
v -3 16 5
v -3 16 2
v -3 16 -3
v -3 16 -6
v -2 14 6
v -2 14 2
v -2 14 1
v -2 14 -2
v -2 14 -6
v -2 14 -7
v -2 15 6
v -2 15 2
v -2 15 1
v -2 15 -2
v -2 15 -6
v -2 15 -7
v 5 15 5
v 5 15 2
v 5 15 -3
v 5 15 -6
v 5 16 5
v 5 16 2
v 5 16 -3
v 5 16 -6
v 6 14 6
v 6 14 2
v 6 14 1
v 6 14 -2
v 6 14 -6
v 6 14 -7
v 6 15 6
v 6 15 2
v 6 15 1
v 6 15 -2
v 6 15 -6
v 6 15 -7
v 8 0 8
v 8 0 -0
v 8 0 -2
v 8 0 -8
v 8 8 1
v 8 8 -0
v 8 9 -1
v 8 9 -2
v 8 14 8
v 8 14 1
v 8 14 -1
v 8 14 -8
v -8 0 8
v -8 14 8
v -2 0 8
v -2 1 8
v -1 1 8
v -1 14 8
v 1 0 8
v 1 14 8
v 8 0 8
v 8 14 8
v -7 14 6
v -7 15 6
v -6 14 6
v -6 15 6
v -2 14 6
v -2 15 6
v 1 14 6
v 1 15 6
v 2 14 6
v 2 15 6
v 6 14 6
v 6 15 6
v -6 15 5
v -6 16 5
v -3 15 5
v -3 16 5
v 2 15 5
v 2 16 5
v 5 15 5
v 5 16 5
v -7 14 -2
v -7 15 -2
v -6 14 -2
v -6 15 -2
v -2 14 -2
v -2 15 -2
v 1 14 -2
v 1 15 -2
v 2 14 -2
v 2 15 -2
v 6 14 -2
v 6 15 -2
v -6 15 -3
v -6 16 -3
v -3 15 -3
v -3 16 -3
v 2 15 -3
v 2 16 -3
v 5 15 -3
v 5 16 -3
v -6 15 2
v -6 16 2
v -3 15 2
v -3 16 2
v 2 15 2
v 2 16 2
v 5 15 2
v 5 16 2
v -7 14 1
v -7 15 1
v -2 14 1
v -2 15 1
v 1 14 1
v 1 15 1
v 6 14 1
v 6 15 1
v -6 15 -6
v -6 16 -6
v -3 15 -6
v -3 16 -6
v 2 15 -6
v 2 16 -6
v 5 15 -6
v 5 16 -6
v -7 14 -7
v -7 15 -7
v -2 14 -7
v -2 15 -7
v 1 14 -7
v 1 15 -7
v 6 14 -7
v 6 15 -7
v -8 0 -8
v -8 14 -8
v 7 0 -8
v 7 14 -8
v 8 0 -8
v 8 14 -8
v -8 0 8
v -2 0 8
v 1 0 8
v 8 0 8
v -8 0 7
v -2 0 7
v 1 0 7
v 7 0 7
v 7 0 -0
v 8 0 -0
v 7 0 -2
v 8 0 -2
v -8 0 -8
v 7 0 -8
v 8 0 -8
v -8 14 8
v -1 14 8
v 1 14 8
v 8 14 8
v -8 14 7
v -7 14 7
v -1 14 7
v 1 14 7
v 7 14 7
v -7 14 6
v -6 14 6
v -2 14 6
v 1 14 6
v 2 14 6
v 6 14 6
v -2 14 2
v 6 14 2
v -7 14 1
v -2 14 1
v -1 14 1
v 1 14 1
v 6 14 1
v 7 14 1
v 8 14 1
v -7 14 -1
v -1 14 -1
v 1 14 -1
v 7 14 -1
v 8 14 -1
v -7 14 -2
v -6 14 -2
v -2 14 -2
v 1 14 -2
v 2 14 -2
v 6 14 -2
v -2 14 -6
v 6 14 -6
v -7 14 -7
v -2 14 -7
v -1 14 -7
v 1 14 -7
v 6 14 -7
v 7 14 -7
v -8 14 -8
v 7 14 -8
v 8 14 -8
v -7 15 6
v -6 15 6
v -2 15 6
v 1 15 6
v 2 15 6
v 6 15 6
v -6 15 5
v -3 15 5
v 2 15 5
v 5 15 5
v -6 15 2
v -3 15 2
v -2 15 2
v 2 15 2
v 5 15 2
v 6 15 2
v -7 15 1
v -2 15 1
v 1 15 1
v 6 15 1
v -7 15 -2
v -6 15 -2
v -2 15 -2
v 1 15 -2
v 2 15 -2
v 6 15 -2
v -6 15 -3
v -3 15 -3
v 2 15 -3
v 5 15 -3
v -6 15 -6
v -3 15 -6
v -2 15 -6
v 2 15 -6
v 5 15 -6
v 6 15 -6
v -7 15 -7
v -2 15 -7
v 1 15 -7
v 6 15 -7
v -6 16 5
v -3 16 5
v 2 16 5
v 5 16 5
v -6 16 2
v -3 16 2
v 2 16 2
v 5 16 2
v -6 16 -3
v -3 16 -3
v 2 16 -3
v 5 16 -3
v -6 16 -6
v -3 16 -6
v 2 16 -6
v 5 16 -6

# faces
f 4/2/1 2/2/1 1/2/1
f 5/1/1 3/1/1 2/1/1
f 5/2/1 2/2/1 4/2/1
f 6/1/1 3/1/1 5/1/1
f 11/2/1 8/2/1 7/2/1
f 12/2/1 8/2/1 11/2/1
f 13/2/1 10/2/1 9/2/1
f 14/2/1 10/2/1 13/2/1
f 19/3/1 16/3/1 15/3/1
f 20/3/1 16/3/1 19/3/1
f 21/3/1 18/3/1 17/3/1
f 22/3/1 18/3/1 21/3/1
f 27/2/1 24/2/1 23/2/1
f 28/2/1 24/2/1 27/2/1
f 29/2/1 26/2/1 25/2/1
f 30/2/1 26/2/1 29/2/1
f 35/3/1 32/3/1 31/3/1
f 36/3/1 32/3/1 35/3/1
f 37/3/1 34/3/1 33/3/1
f 38/3/1 34/3/1 37/3/1
f 39/3/2 40/3/2 43/3/2
f 43/3/2 40/3/2 44/3/2
f 41/3/2 42/3/2 45/3/2
f 45/3/2 42/3/2 46/3/2
f 47/4/2 48/4/2 53/4/2
f 48/2/2 49/2/2 54/2/2
f 53/4/2 48/4/2 54/4/2
f 54/2/2 49/2/2 55/2/2
f 50/4/2 51/4/2 56/4/2
f 51/2/2 52/2/2 57/2/2
f 56/4/2 51/4/2 57/4/2
f 57/2/2 52/2/2 58/2/2
f 59/3/2 60/3/2 63/3/2
f 63/3/2 60/3/2 64/3/2
f 61/3/2 62/3/2 65/3/2
f 65/3/2 62/3/2 66/3/2
f 67/4/2 68/4/2 73/4/2
f 68/2/2 69/2/2 74/2/2
f 73/4/2 68/4/2 74/4/2
f 74/2/2 69/2/2 75/2/2
f 70/4/2 71/4/2 76/4/2
f 71/2/2 72/2/2 77/2/2
f 76/4/2 71/4/2 77/4/2
f 77/2/2 72/2/2 78/2/2
f 79/2/2 80/2/2 83/2/2
f 80/1/2 81/1/2 84/1/2
f 83/2/2 80/2/2 84/2/2
f 83/1/2 84/1/2 85/1/2
f 84/1/2 81/1/2 85/1/2
f 81/2/2 82/2/2 86/2/2
f 85/1/2 81/1/2 86/1/2
f 79/2/2 83/2/2 87/2/2
f 83/1/2 85/1/2 88/1/2
f 87/2/2 83/2/2 88/2/2
f 85/2/2 86/2/2 89/2/2
f 88/1/2 85/1/2 89/1/2
f 86/2/2 82/2/2 90/2/2
f 89/2/2 86/2/2 90/2/2
f 93/2/3 92/2/3 91/2/3
f 94/2/3 92/2/3 93/2/3
f 95/1/3 94/1/3 93/1/3
f 95/2/3 92/2/3 94/2/3
f 96/2/3 92/2/3 95/2/3
f 97/1/3 95/1/3 93/1/3
f 97/1/3 96/1/3 95/1/3
f 98/1/3 96/1/3 97/1/3
f 99/2/3 98/2/3 97/2/3
f 100/2/3 98/2/3 99/2/3
f 103/2/3 102/2/3 101/2/3
f 104/2/3 102/2/3 103/2/3
f 105/4/3 104/4/3 103/4/3
f 106/4/3 104/4/3 105/4/3
f 109/2/3 108/2/3 107/2/3
f 110/2/3 108/2/3 109/2/3
f 111/4/3 110/4/3 109/4/3
f 112/4/3 110/4/3 111/4/3
f 115/3/3 114/3/3 113/3/3
f 116/3/3 114/3/3 115/3/3
f 119/3/3 118/3/3 117/3/3
f 120/3/3 118/3/3 119/3/3
f 123/2/3 122/2/3 121/2/3
f 124/2/3 122/2/3 123/2/3
f 125/4/3 124/4/3 123/4/3
f 126/4/3 124/4/3 125/4/3
f 129/2/3 128/2/3 127/2/3
f 130/2/3 128/2/3 129/2/3
f 131/4/3 130/4/3 129/4/3
f 132/4/3 130/4/3 131/4/3
f 135/3/3 134/3/3 133/3/3
f 136/3/3 134/3/3 135/3/3
f 139/3/3 138/3/3 137/3/3
f 140/3/3 138/3/3 139/3/3
f 141/3/4 142/3/4 143/3/4
f 143/3/4 142/3/4 144/3/4
f 145/3/4 146/3/4 147/3/4
f 147/3/4 146/3/4 148/3/4
f 149/2/4 150/2/4 151/2/4
f 151/2/4 150/2/4 152/2/4
f 153/2/4 154/2/4 155/2/4
f 155/2/4 154/2/4 156/2/4
f 157/3/4 158/3/4 159/3/4
f 159/3/4 158/3/4 160/3/4
f 161/3/4 162/3/4 163/3/4
f 163/3/4 162/3/4 164/3/4
f 165/2/4 166/2/4 167/2/4
f 167/2/4 166/2/4 168/2/4
f 169/2/4 170/2/4 171/2/4
f 171/2/4 170/2/4 172/2/4
f 173/1/4 174/1/4 175/1/4
f 175/1/4 174/1/4 176/1/4
f 175/2/4 176/2/4 177/2/4
f 177/2/4 176/2/4 178/2/4
f 183/2/5 180/2/5 179/2/5
f 184/1/5 181/1/5 180/1/5
f 184/2/5 180/2/5 183/2/5
f 185/2/5 182/2/5 181/2/5
f 185/1/5 181/1/5 184/1/5
f 186/2/5 182/2/5 185/2/5
f 187/1/5 184/1/5 183/1/5
f 187/2/5 182/2/5 186/2/5
f 187/1/5 186/1/5 185/1/5
f 187/1/5 185/1/5 184/1/5
f 188/2/5 182/2/5 187/2/5
f 189/1/5 187/1/5 183/1/5
f 189/1/5 188/1/5 187/1/5
f 190/1/5 188/1/5 189/1/5
f 191/1/5 189/1/5 183/1/5
f 192/2/5 190/2/5 189/2/5
f 192/1/5 189/1/5 191/1/5
f 193/2/5 190/2/5 192/2/5
f 194/2/6 195/2/6 198/2/6
f 198/2/6 195/2/6 199/2/6
f 195/1/6 196/1/6 200/1/6
f 199/2/6 195/2/6 200/2/6
f 196/2/6 197/2/6 201/2/6
f 200/1/6 196/1/6 201/1/6
f 201/2/6 197/2/6 202/2/6
f 199/4/6 200/4/6 203/4/6
f 198/1/6 199/1/6 203/1/6
f 203/4/6 200/4/6 204/4/6
f 204/4/6 200/4/6 205/4/6
f 201/4/6 202/4/6 206/4/6
f 200/1/6 201/1/6 206/1/6
f 206/4/6 202/4/6 207/4/6
f 207/4/6 202/4/6 208/4/6
f 205/4/6 200/4/6 209/4/6
f 208/4/6 202/4/6 210/4/6
f 198/1/6 203/1/6 211/1/6
f 209/4/6 200/4/6 212/4/6
f 200/1/6 206/1/6 213/1/6
f 212/4/6 200/4/6 213/4/6
f 213/1/6 206/1/6 214/1/6
f 210/4/6 202/4/6 215/4/6
f 202/2/6 197/2/6 216/2/6
f 215/4/6 202/4/6 216/4/6
f 216/2/6 197/2/6 217/2/6
f 214/1/6 215/1/6 218/1/6
f 198/1/6 211/1/6 218/1/6
f 216/1/6 217/1/6 218/1/6
f 215/1/6 216/1/6 218/1/6
f 211/1/6 212/1/6 218/1/6
f 212/1/6 213/1/6 218/1/6
f 213/1/6 214/1/6 218/1/6
f 218/1/6 217/1/6 219/1/6
f 219/1/6 217/1/6 220/1/6
f 220/1/6 217/1/6 221/1/6
f 221/1/6 217/1/6 222/1/6
f 198/1/6 218/1/6 223/1/6
f 218/4/6 219/4/6 223/4/6
f 223/4/6 219/4/6 224/4/6
f 224/4/6 219/4/6 225/4/6
f 219/1/6 220/1/6 226/1/6
f 220/4/6 221/4/6 226/4/6
f 226/4/6 221/4/6 227/4/6
f 227/4/6 221/4/6 228/4/6
f 225/4/6 219/4/6 229/4/6
f 228/4/6 221/4/6 230/4/6
f 198/1/6 223/1/6 231/1/6
f 229/4/6 219/4/6 232/4/6
f 219/1/6 226/1/6 233/1/6
f 232/4/6 219/4/6 233/4/6
f 233/1/6 226/1/6 234/1/6
f 230/4/6 221/4/6 235/4/6
f 221/2/6 222/2/6 236/2/6
f 235/4/6 221/4/6 236/4/6
f 234/1/6 235/1/6 237/1/6
f 198/1/6 231/1/6 237/1/6
f 235/1/6 236/1/6 237/1/6
f 231/1/6 232/1/6 237/1/6
f 232/1/6 233/1/6 237/1/6
f 233/1/6 234/1/6 237/1/6
f 236/2/6 222/2/6 238/2/6
f 237/1/6 236/1/6 238/1/6
f 238/2/6 222/2/6 239/2/6
f 240/2/6 241/2/6 246/2/6
f 241/4/6 242/4/6 246/4/6
f 246/4/6 242/4/6 247/4/6
f 244/4/6 245/4/6 248/4/6
f 243/2/6 244/2/6 248/2/6
f 248/4/6 245/4/6 249/4/6
f 240/2/6 246/2/6 250/2/6
f 247/4/6 242/4/6 251/4/6
f 251/4/6 242/4/6 252/4/6
f 243/2/6 248/2/6 253/2/6
f 249/4/6 245/4/6 254/4/6
f 254/4/6 245/4/6 255/4/6
f 240/2/6 250/2/6 256/2/6
f 251/2/6 252/2/6 256/2/6
f 250/2/6 251/2/6 256/2/6
f 256/2/6 252/2/6 257/2/6
f 243/2/6 253/2/6 258/2/6
f 254/2/6 255/2/6 258/2/6
f 253/2/6 254/2/6 258/2/6
f 258/2/6 255/2/6 259/2/6
f 260/2/6 261/2/6 266/2/6
f 261/4/6 262/4/6 266/4/6
f 266/4/6 262/4/6 267/4/6
f 264/4/6 265/4/6 268/4/6
f 263/2/6 264/2/6 268/2/6
f 268/4/6 265/4/6 269/4/6
f 260/2/6 266/2/6 270/2/6
f 267/4/6 262/4/6 271/4/6
f 271/4/6 262/4/6 272/4/6
f 263/2/6 268/2/6 273/2/6
f 269/4/6 265/4/6 274/4/6
f 274/4/6 265/4/6 275/4/6
f 260/2/6 270/2/6 276/2/6
f 271/2/6 272/2/6 276/2/6
f 270/2/6 271/2/6 276/2/6
f 276/2/6 272/2/6 277/2/6
f 263/2/6 273/2/6 278/2/6
f 274/2/6 275/2/6 278/2/6
f 273/2/6 274/2/6 278/2/6
f 278/2/6 275/2/6 279/2/6
f 280/3/6 281/3/6 284/3/6
f 284/3/6 281/3/6 285/3/6
f 282/3/6 283/3/6 286/3/6
f 286/3/6 283/3/6 287/3/6
f 288/3/6 289/3/6 292/3/6
f 292/3/6 289/3/6 293/3/6
f 290/3/6 291/3/6 294/3/6
f 294/3/6 291/3/6 295/3/6
