# MagicaVoxel @ Ephtracy

# group
g kirp_block

# material
mtllib kirp_block.mtl
usemtl palette

# normals
vn -1 0 0
vn 1 0 0
vn 0 0 1
vn 0 0 -1
vn 0 -1 0
vn 0 1 0

# texcoords
vt 0.0917969 0.5
vt 0.970703 0.5
vt 0.974609 0.5

# verts
v -8 0 8
v -8 0 -8
v -8 15 3
v -8 15 1
v -8 15 -0
v -8 15 -5
v -8 15 -7
v -8 15 -8
v -8 16 8
v -8 16 3
v -8 16 1
v -8 16 -0
v -8 16 -5
v -8 16 -7
v -8 16 -8
v 8 0 8
v 8 0 -8
v 8 15 7
v 8 15 5
v 8 15 4
v 8 15 3
v 8 15 1
v 8 15 -0
v 8 15 -1
v 8 15 -3
v 8 15 -4
v 8 15 -5
v 8 15 -7
v 8 15 -8
v 8 16 8
v 8 16 7
v 8 16 5
v 8 16 4
v 8 16 3
v 8 16 1
v 8 16 -0
v 8 16 -1
v 8 16 -3
v 8 16 -4
v 8 16 -5
v 8 16 -7
v 8 16 -8
v -8 0 8
v -8 16 8
v 8 0 8
v 8 16 8
v -8 0 -8
v -8 15 -8
v -8 16 -8
v -4 15 -8
v -4 16 -8
v -3 15 -8
v -3 16 -8
v 4 15 -8
v 4 16 -8
v 5 15 -8
v 5 16 -8
v 8 0 -8
v 8 15 -8
v 8 16 -8
v -8 0 8
v 8 0 8
v -8 0 -8
v 8 0 -8
v -8 16 8
v 8 16 8
v -7 16 7
v -6 16 7
v 0 16 7
v 1 16 7
v 2 16 7
v 8 16 7
v -6 16 5
v 0 16 5
v 2 16 5
v 8 16 5
v -7 16 4
v 0 16 4
v 1 16 4
v 8 16 4
v -8 16 3
v -4 16 3
v -3 16 3
v -2 16 3
v 4 16 3
v 5 16 3
v 6 16 3
v 8 16 3
v -8 16 1
v -4 16 1
v -2 16 1
v 4 16 1
v 6 16 1
v 8 16 1
v -8 16 -0
v -4 16 -0
v -3 16 -0
v 4 16 -0
v 5 16 -0
v 8 16 -0
v -7 16 -1
v -6 16 -1
v 0 16 -1
v 1 16 -1
v 2 16 -1
v 8 16 -1
v -6 16 -3
v 0 16 -3
v 2 16 -3
v 8 16 -3
v -7 16 -4
v 0 16 -4
v 1 16 -4
v 8 16 -4
v -8 16 -5
v -4 16 -5
v -3 16 -5
v -2 16 -5
v 4 16 -5
v 5 16 -5
v 6 16 -5
v 8 16 -5
v -8 16 -7
v -4 16 -7
v -2 16 -7
v 4 16 -7
v 6 16 -7
v 8 16 -7
v -8 16 -8
v -4 16 -8
v -3 16 -8
v 4 16 -8
v 5 16 -8
v 8 16 -8

# faces
f 3/1/1 2/1/1 1/1/1
f 4/1/1 2/1/1 3/1/1
f 5/1/1 2/1/1 4/1/1
f 6/1/1 2/1/1 5/1/1
f 7/1/1 2/1/1 6/1/1
f 8/1/1 2/1/1 7/1/1
f 9/1/1 3/1/1 1/1/1
f 10/3/1 4/3/1 3/3/1
f 10/1/1 3/1/1 9/1/1
f 11/2/1 5/2/1 4/2/1
f 11/3/1 4/3/1 10/3/1
f 12/1/1 6/1/1 5/1/1
f 12/2/1 5/2/1 11/2/1
f 13/3/1 7/3/1 6/3/1
f 13/1/1 6/1/1 12/1/1
f 14/2/1 8/2/1 7/2/1
f 14/3/1 7/3/1 13/3/1
f 15/2/1 8/2/1 14/2/1
f 16/1/2 17/1/2 18/1/2
f 18/1/2 17/1/2 19/1/2
f 19/1/2 17/1/2 20/1/2
f 20/1/2 17/1/2 21/1/2
f 21/1/2 17/1/2 22/1/2
f 22/1/2 17/1/2 23/1/2
f 23/1/2 17/1/2 24/1/2
f 24/1/2 17/1/2 25/1/2
f 25/1/2 17/1/2 26/1/2
f 26/1/2 17/1/2 27/1/2
f 27/1/2 17/1/2 28/1/2
f 28/1/2 17/1/2 29/1/2
f 16/1/2 18/1/2 30/1/2
f 18/3/2 19/3/2 31/3/2
f 30/1/2 18/1/2 31/1/2
f 19/2/2 20/2/2 32/2/2
f 31/3/2 19/3/2 32/3/2
f 20/1/2 21/1/2 33/1/2
f 32/2/2 20/2/2 33/2/2
f 21/3/2 22/3/2 34/3/2
f 33/1/2 21/1/2 34/1/2
f 22/2/2 23/2/2 35/2/2
f 34/3/2 22/3/2 35/3/2
f 23/1/2 24/1/2 36/1/2
f 35/2/2 23/2/2 36/2/2
f 24/3/2 25/3/2 37/3/2
f 36/1/2 24/1/2 37/1/2
f 25/2/2 26/2/2 38/2/2
f 37/3/2 25/3/2 38/3/2
f 26/1/2 27/1/2 39/1/2
f 38/2/2 26/2/2 39/2/2
f 27/3/2 28/3/2 40/3/2
f 39/1/2 27/1/2 40/1/2
f 28/2/2 29/2/2 41/2/2
f 40/3/2 28/3/2 41/3/2
f 41/2/2 29/2/2 42/2/2
f 45/1/3 44/1/3 43/1/3
f 46/1/3 44/1/3 45/1/3
f 47/1/4 48/1/4 50/1/4
f 48/2/4 49/2/4 50/2/4
f 50/2/4 49/2/4 51/2/4
f 47/1/4 50/1/4 52/1/4
f 50/1/4 51/1/4 52/1/4
f 52/1/4 51/1/4 53/1/4
f 47/1/4 52/1/4 54/1/4
f 52/2/4 53/2/4 54/2/4
f 54/2/4 53/2/4 55/2/4
f 47/1/4 54/1/4 56/1/4
f 54/1/4 55/1/4 56/1/4
f 56/1/4 55/1/4 57/1/4
f 47/1/4 56/1/4 58/1/4
f 56/2/4 57/2/4 59/2/4
f 58/1/4 56/1/4 59/1/4
f 59/2/4 57/2/4 60/2/4
f 63/1/5 62/1/5 61/1/5
f 64/1/5 62/1/5 63/1/5
f 65/1/6 66/1/6 67/1/6
f 67/1/6 66/1/6 68/1/6
f 68/1/6 66/1/6 69/1/6
f 69/1/6 66/1/6 70/1/6
f 70/1/6 66/1/6 71/1/6
f 71/1/6 66/1/6 72/1/6
f 67/2/6 68/2/6 73/2/6
f 68/3/6 69/3/6 73/3/6
f 69/1/6 70/1/6 74/1/6
f 73/3/6 69/3/6 74/3/6
f 71/3/6 72/3/6 75/3/6
f 70/2/6 71/2/6 75/2/6
f 75/3/6 72/3/6 76/3/6
f 65/1/6 67/1/6 77/1/6
f 67/2/6 73/2/6 77/2/6
f 73/2/6 74/2/6 77/2/6
f 74/1/6 70/1/6 78/1/6
f 77/2/6 74/2/6 78/2/6
f 75/2/6 76/2/6 79/2/6
f 78/1/6 70/1/6 79/1/6
f 70/2/6 75/2/6 79/2/6
f 79/2/6 76/2/6 80/2/6
f 65/1/6 77/1/6 81/1/6
f 77/1/6 78/1/6 81/1/6
f 79/1/6 80/1/6 81/1/6
f 78/1/6 79/1/6 81/1/6
f 81/1/6 80/1/6 82/1/6
f 82/1/6 80/1/6 83/1/6
f 83/1/6 80/1/6 84/1/6
f 84/1/6 80/1/6 85/1/6
f 85/1/6 80/1/6 86/1/6
f 86/1/6 80/1/6 87/1/6
f 87/1/6 80/1/6 88/1/6
f 81/3/6 82/3/6 89/3/6
f 82/1/6 83/1/6 90/1/6
f 89/3/6 82/3/6 90/3/6
f 83/2/6 84/2/6 91/2/6
f 84/3/6 85/3/6 91/3/6
f 85/1/6 86/1/6 92/1/6
f 91/3/6 85/3/6 92/3/6
f 86/2/6 87/2/6 93/2/6
f 87/3/6 88/3/6 93/3/6
f 93/3/6 88/3/6 94/3/6
f 89/2/6 90/2/6 95/2/6
f 90/1/6 83/1/6 96/1/6
f 95/2/6 90/2/6 96/2/6
f 83/2/6 91/2/6 97/2/6
f 96/1/6 83/1/6 97/1/6
f 91/2/6 92/2/6 97/2/6
f 92/1/6 86/1/6 98/1/6
f 97/2/6 92/2/6 98/2/6
f 93/2/6 94/2/6 99/2/6
f 98/1/6 86/1/6 99/1/6
f 86/2/6 93/2/6 99/2/6
f 99/2/6 94/2/6 100/2/6
f 95/1/6 96/1/6 101/1/6
f 96/1/6 97/1/6 101/1/6
f 99/1/6 100/1/6 101/1/6
f 98/1/6 99/1/6 101/1/6
f 97/1/6 98/1/6 101/1/6
f 101/1/6 100/1/6 102/1/6
f 102/1/6 100/1/6 103/1/6
f 103/1/6 100/1/6 104/1/6
f 104/1/6 100/1/6 105/1/6
f 105/1/6 100/1/6 106/1/6
f 101/2/6 102/2/6 107/2/6
f 102/3/6 103/3/6 107/3/6
f 103/1/6 104/1/6 108/1/6
f 107/3/6 103/3/6 108/3/6
f 105/3/6 106/3/6 109/3/6
f 104/2/6 105/2/6 109/2/6
f 109/3/6 106/3/6 110/3/6
f 95/1/6 101/1/6 111/1/6
f 101/2/6 107/2/6 111/2/6
f 107/2/6 108/2/6 111/2/6
f 108/1/6 104/1/6 112/1/6
f 111/2/6 108/2/6 112/2/6
f 109/2/6 110/2/6 113/2/6
f 112/1/6 104/1/6 113/1/6
f 104/2/6 109/2/6 113/2/6
f 113/2/6 110/2/6 114/2/6
f 95/1/6 111/1/6 115/1/6
f 111/1/6 112/1/6 115/1/6
f 113/1/6 114/1/6 115/1/6
f 112/1/6 113/1/6 115/1/6
f 115/1/6 114/1/6 116/1/6
f 116/1/6 114/1/6 117/1/6
f 117/1/6 114/1/6 118/1/6
f 118/1/6 114/1/6 119/1/6
f 119/1/6 114/1/6 120/1/6
f 120/1/6 114/1/6 121/1/6
f 121/1/6 114/1/6 122/1/6
f 115/3/6 116/3/6 123/3/6
f 116/1/6 117/1/6 124/1/6
f 123/3/6 116/3/6 124/3/6
f 117/2/6 118/2/6 125/2/6
f 118/3/6 119/3/6 125/3/6
f 119/1/6 120/1/6 126/1/6
f 125/3/6 119/3/6 126/3/6
f 120/2/6 121/2/6 127/2/6
f 121/3/6 122/3/6 127/3/6
f 127/3/6 122/3/6 128/3/6
f 123/2/6 124/2/6 129/2/6
f 124/1/6 117/1/6 130/1/6
f 129/2/6 124/2/6 130/2/6
f 117/2/6 125/2/6 131/2/6
f 130/1/6 117/1/6 131/1/6
f 125/2/6 126/2/6 131/2/6
f 126/1/6 120/1/6 132/1/6
f 131/2/6 126/2/6 132/2/6
f 127/2/6 128/2/6 133/2/6
f 132/1/6 120/1/6 133/1/6
f 120/2/6 127/2/6 133/2/6
f 133/2/6 128/2/6 134/2/6
